<?xml version="1.0" encoding="UTF-8"?>
<svg id="_Слой_2" data-name="Слой 2" xmlns="http://www.w3.org/2000/svg" viewBox="0 0 1117.1 498.98">
  <defs>
    <style>
      .cls-1 {
        fill: #00b2d9;
      }
    </style>
  </defs>
  <g id="_Слой_1-2" data-name="Слой 1">
    <g>
      <path class="cls-1" d="M139.87,228.6c-2.47,26.58-8.3,67.7-28.06,84.19-9.42,7.43-20.72,11.26-33.19,11.69-26.39.91-52.11,0-78.62-1.17l15.99-117.39,5.26-39.37c23.86-1.32,47.18-2.51,71.17-1.74,7.19.23,14.44,1.69,21.08,3.98,24.6,8.47,28.67,35.04,26.37,59.8ZM96.27,272.14c5.13-19.7,8.27-39.68,8.07-59.78-.11-10.86-6.54-18.75-17.3-19.38-11.7-.69-23.54-.45-35.48.24l-11.64,82.37-3.06,22.29,31.92-.27c14.35-.12,23.91-11.69,27.5-25.48Z"/>
      <path class="cls-1" d="M578.75,303.02c-16.43,15.69-25.96,21.73-48.34,22.09-11.73.19-22.89-4.66-27.44-16.09-6.46-16.23-1.73-44.39,2.95-62.8,2.61-10.24,7.1-19.31,14.29-26.8,8.33-6.77,18.18-10.18,29.25-10.84,23.7-1.39,47.17,1.7,70.34,6.4l-16.24,107.23-25.48.24.65-19.43ZM577.76,277.85l6.27-44.39-27.23-.58c-8.99-.19-15.43,6.73-18.23,15.06-3.53,13.63-5.86,27.47-5.58,41.6.1,5.18,3.16,9.22,8.49,9.27,15.02.13,25.02-10.72,36.27-20.95Z"/>
      <path class="cls-1" d="M197.73,298.05c12.04,1.51,24,1.05,35.7-.65l26.56-3.87-1.42,22.55c-18.47,6.85-37.86,9.15-57.94,8.91-11.82-.14-23.43-1.56-33.53-7.94-24.24-15.33-19.06-57.39-8.59-82.39,9.62-22.96,32.46-26.59,56.09-26.52,21.13.07,45.93,2.51,48.63,25.07,2.01,16.75-4.96,36.19-20.33,39.7l-15.43,3.53-43.41,3.45c-1.32,8.75,3.94,16.94,13.66,18.16ZM220.19,256.93c7.78-.81,11.41-7.37,11.59-14.34.13-4.95-2.27-9.66-7.66-9.62l-19.54.14c-13.63,2.79-17.16,13.74-18.92,27.41l34.53-3.6Z"/>
      <path class="cls-1" d="M315.41,255.6l-9.34,66.85-32.73-.05,9.39-65.63,6.24-44.23,26.38.02-1.01,22.47c16.57-15.85,35.65-29.31,58.11-24.61,12.97,2.71,20.13,13.03,20.01,26.45l-11.43,85.38h-33.2s10.82-76.44,10.82-76.44c-.59-2.49-1.27-5.29-2.26-6.62-4.24-5.7-19.46,1.43-28.5,7.73l-12.46,8.69Z"/>
      <path class="cls-1" d="M472.45,297.33l1.72,23.04c-12.86,3.7-25.65,5.38-38.99,3.56-11.5-1.57-22.12-11.02-20.45-23.47l8.99-66.96-20.9-.11,2.75-19.75,21.19-2.34,5.26-32.57,32.2-.11-4.85,33.02,32.27.02-3.38,21.75-31.89.11-7.99,56.16c-.51,3.56.92,7.69,5.29,7.68l18.77-.03Z"/>
      <path class="cls-1" d="M685.97,297.22l.24,23.92c-12.43,3.2-23.85,4.63-36.15,2.68-11.11-1.76-21.97-11.08-20.22-23.49l9.16-64.86,10.06-70.01h33.35s-9.54,65.3-9.54,65.3l-8.91,59.78c-.55,3.68,2.35,6.34,5.4,6.91l16.61-.23Z"/>
      <path class="cls-1" d="M902.14,301.56c-16.43,14.84-29.33,23.12-51.87,23.53-14.88.27-25.85-9.4-27.43-24.42-1.29-12.37.12-24.77,2.11-37.35,4.17-26.37,10.78-49.28,39.57-52.33,22.02-2.33,43.51.48,65.38,4.79l-2.27,19.15-12.76,87.23-13.79.3,1.04-20.91ZM853.75,309.63c18.63.41,36.96-13.14,48.71-26.99l8.22-55.22c-25.3-2.78-54.77-7.7-62.92,16.88-3.44,10.46-5.14,21.14-6.52,32.29-1.85,15.05-3.19,32.69,12.5,33.04Z"/>
      <path class="cls-1" d="M1039.2,302.59c11.88,12.73,46,6.28,66.39,3.58l-.22,12.64c-15.38,5.12-30.24,6.39-46.31,6.11-11.08-.19-22.12-1.53-31.17-8.21-20.75-15.32-14.32-56.79-4.87-80.02,5.01-12.31,14.72-20.53,27.5-23.72,16.07-4.02,32.81-3.85,48.86.04,9.81,2.37,16.58,9.81,17.48,19.79.9,9.95-.64,20.07-5.95,28.75-7.5,12.26-29.11,14.02-44.71,15.35l-33.16,2.83c-.43,8,.43,16.69,6.17,22.84ZM1088.78,258.72c9.46-4.79,13.05-16.82,9.23-26.18-3.24-7.95-23.31-8.1-35.23-6.5-21.05,3.58-25.11,19.31-28.24,40.13l30.75-2.35c7.78-.6,15.98-1.3,23.49-5.1Z"/>
      <path class="cls-1" d="M799.65,304.36l.11,14.94c-20.67,5.65-55.91,8.62-74.51,2.31-23.02-7.8-28.12-30.47-27.25-54.08.71-19.39,4.01-38.18,9.4-56.79,7.07-24.4,21.74-41.33,47.5-44.47,19.36-2.36,38.01-.38,57.6,3.22l-2.19,14.56-46.82-1.17c-15.86.96-27.81,9.67-33.98,24.13-7.23,16.96-9.94,34.92-11.31,53.61-.83,11.31-1.14,22.46,3,33.12,3.47,8.91,12.37,13.49,21.87,14.27,19.01,1.55,37.02-.81,56.58-3.65Z"/>
      <ellipse class="cls-1" cx="510.02" cy="38.92" rx="38.89" ry="38.92"/>
      <ellipse class="cls-1" cx="510.1" cy="460.22" rx="38.73" ry="38.75"/>
      <ellipse class="cls-1" cx="605.53" cy="459.98" rx="38.56" ry="38.59"/>
      <ellipse class="cls-1" cx="606.85" cy="40.01" rx="38.51" ry="38.53"/>
      <ellipse class="cls-1" cx="418.87" cy="61.6" rx="34.39" ry="34.41"/>
      <ellipse class="cls-1" cx="420.04" cy="437.6" rx="33.24" ry="33.27"/>
      <ellipse class="cls-1" cx="695.86" cy="62.43" rx="33.22" ry="33.24"/>
      <ellipse class="cls-1" cx="695.1" cy="437.08" rx="32.82" ry="32.84"/>
      <path class="cls-1" d="M947.43,322.28l-17.26.13,15.84-106.86,14.77-.34-1.98,24.75c16.63-13.52,32.67-29.78,54.67-27.23l-3.24,15.84c-10.66.96-20.14,2.7-28.51,8.64l-23.52,16.69-10.77,68.37Z"/>
      <ellipse class="cls-1" cx="344.11" cy="95.33" rx="24.38" ry="24.4"/>
      <ellipse class="cls-1" cx="345.96" cy="404.26" rx="24.18" ry="24.19"/>
      <ellipse class="cls-1" cx="769.07" cy="404.04" rx="24.02" ry="24.03"/>
      <ellipse class="cls-1" cx="769.08" cy="95.81" rx="23.94" ry="23.96"/>
    </g>
  </g>
</svg>